<?xml version="1.0" encoding="utf-8"?>
<!-- Generator: Adobe Illustrator 19.1.0, SVG Export Plug-In . SVG Version: 6.00 Build 0)  -->
<svg version="1.1" xmlns="http://www.w3.org/2000/svg" xmlns:xlink="http://www.w3.org/1999/xlink" x="0px" y="0px"
	 viewBox="0 0 500 500" style="enable-background:new 0 0 500 500;" xml:space="preserve">
<style type="text/css">
	.st0{display:none;}
	.st1{display:inline;fill:#FFFFFF;stroke:#231F20;stroke-miterlimit:10;}
	.st2{fill:#FFFFFF;}
</style>
<g id="Layer_2" class="st0">
	<circle class="st1" cx="250" cy="250" r="250"/>
</g>
<g id="Layer_1">
	<g>
		<circle class="st2" cx="250" cy="32.4" r="19.8"/>
		<circle class="st2" cx="250" cy="467.6" r="19.8"/>
	</g>
	<g>
		<circle class="st2" cx="467.6" cy="250" r="19.8"/>
		<circle class="st2" cx="32.4" cy="250" r="19.8"/>
	</g>
	<g>
		<circle class="st2" cx="141.2" cy="61.6" r="19.8"/>
		<circle class="st2" cx="358.8" cy="438.4" r="19.8"/>
	</g>
	<g>
		<circle class="st2" cx="61.6" cy="141.2" r="19.8"/>
		<circle class="st2" cx="438.4" cy="358.8" r="19.8"/>
	</g>
	<g>
		<circle class="st2" cx="438.4" cy="141.2" r="19.8"/>
		<circle class="st2" cx="61.6" cy="358.8" r="19.8"/>
	</g>
	<g>
		<circle class="st2" cx="358.8" cy="61.6" r="19.8"/>
		<circle class="st2" cx="141.2" cy="438.4" r="19.8"/>
	</g>
	<path class="st2" d="M250,276.8L250,276.8c-3,0-5.5-2.5-5.5-5.5V146.7c0-3,2.5-5.5,5.5-5.5l0,0c3,0,5.5,2.5,5.5,5.5v124.6
		C255.5,274.4,253,276.8,250,276.8z"/>
	<path class="st2" d="M435.4,253H220.9c-1.7,0-3-1.3-3-3l0,0c0-1.7,1.3-3,3-3h214.5c1.7,0,3,1.3,3,3l0,0
		C438.4,251.7,437.1,253,435.4,253z"/>
</g>
</svg>
