<?xml version="1.0" encoding="utf-8"?>
<!-- Generator: Adobe Illustrator 19.1.0, SVG Export Plug-In . SVG Version: 6.00 Build 0)  -->
<svg version="1.1" id="Layer_1" xmlns="http://www.w3.org/2000/svg" xmlns:xlink="http://www.w3.org/1999/xlink" x="0px" y="0px"
	 viewBox="0 0 260.8 500" style="enable-background:new 0 0 260.8 500;" xml:space="preserve">
<style type="text/css">
	.st0{fill:#F7F8F9;}
</style>
<g>
	<path class="st0" d="M260.8,83.5c0-26.7,0-53.4,0-80.1c-2.8-0.3-5.6-0.7-8.4-0.9c-9-0.7-18-1.5-27-1.8c-12.8-0.4-25.5-0.9-38.3-0.6
		c-21.2,0.4-41.4,5-59.9,16C106.7,28.3,93,46.2,84.9,68.6c-3.5,9.7-5.9,19.7-6.8,30c-0.6,7.6-1.1,15.2-1.2,22.8
		c-0.2,20.1-0.1,40.3-0.1,60.4c0,2.1,0,2.1-2.1,2.1l-74.8,0c0,29.9,0,59.6,0,89.6l74.7,0c2.3,0,2.3,0,2.3,2.2
		c0,74.8,0,149.6,0,224.4h92.6l0-224.2c0-2.3,0-2.4,2.3-2.4c23.9,0,47.8,0,71.7,0c0.6,0,1.1,0,1.7,0c0.8,0,1.2-0.3,1.3-1.1
		l11.4-88.4l-86.3,0c-2.1,0-2.1,0-2.1-2.1c0-20.2,0-40.5,0.1-60.7c0-5.2,0.9-10.4,2.5-15.3c3.4-10.6,10.9-16.8,21.4-19.8
		c7-2,14.2-2.4,21.4-2.4L260.8,83.5z"/>
</g>
</svg>
