<?xml version="1.0" encoding="utf-8"?>
<!-- Generator: Adobe Illustrator 19.1.0, SVG Export Plug-In . SVG Version: 6.00 Build 0)  -->
<svg version="1.1" xmlns="http://www.w3.org/2000/svg" xmlns:xlink="http://www.w3.org/1999/xlink" x="0px" y="0px"
	 viewBox="0 0 500 500" style="enable-background:new 0 0 500 500;" xml:space="preserve">
<style type="text/css">
	.st0{display:none;}
	.st1{display:inline;fill:#FFFFFF;stroke:#231F20;stroke-miterlimit:10;}
	.st2{fill:#FFFFFF;}
</style>
<g id="Layer_2" class="st0">
	<circle class="st1" cx="250" cy="250" r="250"/>
</g>
<g id="Layer_1">
	<path class="st2" d="M222.6,71.5l0.2,0c23.7-1.2,47.2,0,70.3,5.8c11,2.8,21.4,7.1,30.8,13.5c9.5,6.5,15.9,15.2,18,26.7
		c0.7,3.7,1.6,7.4,5.1,9.6c4.8,3,10,4.4,15.7,2.8c0.9-0.3,2.2-0.5,2.9-0.1c6.1,3.6,12.1,7.2,18.1,11c2.6,1.6,2.8,4.1,0.5,7
		c-4,5.2-7,11-9.6,17c-1.5,3.6-3.9,4.2-6.8,3c-1.9-0.8-3.7-1.8-5.4-2.9c-3.7-2.2-7.5-4.4-11.1-6.8c-1.4-0.9-2.8-2.3-3.4-3.7
		c-0.8-2.1-1.8-4.1-3.5-5.6c-8.4-7.5-16.7-8.3-24.1-4.4c-3.9,2-7.5,4.3-11.3,6.7l0,0c-5.2,3.2-12,10.2-15,15.5l-74.3,130.6
		c-0.6,1-0.5,2.2,0.2,3.1c2,2.7,2.4,6.5,0.6,9.6l-62.1,108.8c-2.4,4.2-7.7,5.6-11.9,3.3l-28-16c-1.3-0.7-2.3-1.8-3.1-3l0,0l0,0
		c-1.6-2.6-1.8-6-0.2-8.9l62.1-108.8c1.8-3.1,5.1-4.7,8.5-4.3c1.1,0.1,2.1-0.4,2.7-1.3l77.5-131c3.8-6.4,5.7-14,4.4-21.4
		c-0.2-1.3-0.2-2.5,0.2-3.5c2.2-5.1,4.4-10.1,6.6-15.1c1.7-3.8,0.6-8.2-2.6-10.9c-2.1-1.7-4.4-3.5-6.9-4.5c-6.5-2.8-13-5.7-19.7-7.5
		c-8.6-2.3-17.4-4.2-26.1-6C217.3,78.6,217.8,71.8,222.6,71.5z"/>
</g>
</svg>
