<?xml version="1.0" encoding="utf-8"?>
<!-- Generator: Adobe Illustrator 19.1.0, SVG Export Plug-In . SVG Version: 6.00 Build 0)  -->
<svg version="1.1" xmlns="http://www.w3.org/2000/svg" xmlns:xlink="http://www.w3.org/1999/xlink" x="0px" y="0px"
	 viewBox="0 0 841.9 595.3" style="enable-background:new 0 0 841.9 595.3;" xml:space="preserve">
<style type="text/css">
	.st0{display:none;}
	.st1{display:inline;fill:#DAA98B;}
	.st2{fill:none;stroke:#F3F3F9;stroke-width:0.25;stroke-miterlimit:10;}
	.st3{fill:#C77C59;}
	.st4{font-family:'OCRBStd';}
	.st5{font-size:44.138px;}
	.st6{letter-spacing:-8;}
	.st7{font-size:15.4483px;}
	.st8{letter-spacing:-3;}
	.st9{fill:#F3F3F9;}
	.st10{opacity:0.5;clip-path:url(#SVGID_2_);}
	.st11{font-size:35.414px;}
	.st12{letter-spacing:-2;}
	.st13{font-family:'GillSans';}
	.st14{font-size:12.3226px;}
	.st15{fill:none;}
	.st16{opacity:0.5;}
	.st17{font-size:8.4718px;}
	.st18{opacity:0.5;fill:#F3F3F9;}
	.st19{opacity:0.5;clip-path:url(#SVGID_4_);}
	.st20{font-size:22.7265px;}
	.st21{letter-spacing:-1;}
	.st22{font-size:28.3251px;}
	.st23{letter-spacing:-5;}
	.st24{font-size:9.9138px;}
	.st25{font-size:15.339px;}
	.st26{font-size:10.5456px;}
	.st27{opacity:0.5;clip-path:url(#SVGID_6_);}
	.st28{font-size:35.2848px;}
	.st29{font-size:46.3304px;}
	.st30{letter-spacing:-13;}
	.st31{font-size:13.513px;}
	.st32{letter-spacing:-4;}
	.st33{font-size:21.343px;}
	.st34{font-size:15.4435px;}
	.st35{font-size:10.6174px;}
	.st36{opacity:0.5;clip-path:url(#SVGID_8_);}
	.st37{font-size:31.2756px;}
	.st38{font-size:48.1164px;}
	.st39{font-size:16.8407px;}
	.st40{font-size:50.623px;}
	.st41{letter-spacing:-15;}
	.st42{font-size:14.765px;}
	.st43{font-size:23.3205px;}
	.st44{font-size:12.831px;}
	.st45{font-size:8.8213px;}
</style>
<g id="Layer_1" class="st0">
	<rect x="0" y="0" class="st1" width="841.9" height="595.3"/>
</g>
<g id="Layer_2">
	<path class="st2" d="M613.5,248.5"/>
	<path class="st2" d="M611.4,247.3"/>
	<g>
		<g>
			<g>
				<text transform="matrix(1 0 0 1 617.3506 516.3876)"><tspan x="0" y="0" class="st3 st4 st5 st6">23-24/1</tspan><tspan x="160.7" y="0" class="st3 st4 st7 st8">2016</tspan></text>
				<text transform="matrix(1 0 0 1 618.8223 517.8583)"><tspan x="0" y="0" class="st9 st4 st5 st6">23-24/1</tspan><tspan x="160.7" y="0" class="st9 st4 st7 st8">2016</tspan></text>
			</g>
			<g>
				<defs>
					<path id="SVGID_1_" d="M812.5,396.7l-87-50.2c-3.2-1.8-6.8-2.8-10.4-2.8c-3.6,0-7.2,0.9-10.4,2.8l-82.9,47.9l-4.1,2.3
						c-6.4,3.7-10.4,10.6-10.4,18v100.5c0,4.8,1.7,9.5,4.8,13.2c1.6,1.9,3.5,3.5,5.6,4.8l87,50.2c6.4,3.7,14.4,3.7,20.8,0l87-50.2
						c6.4-3.7,10.4-10.6,10.4-18V414.7C822.9,407.3,818.9,400.4,812.5,396.7z"/>
				</defs>
				<clipPath id="SVGID_2_">
					<use xlink:href="#SVGID_1_"  style="overflow:visible;"/>
				</clipPath>
				<g class="st10">
					
						<rect x="681.8" y="310.2" transform="matrix(0.8657 0.5006 -0.5006 0.8657 263.7278 -360.9924)" class="st9" width="245.5" height="1.5"/>
					
						<rect x="677.3" y="317.9" transform="matrix(0.8657 0.5006 -0.5006 0.8657 266.9873 -357.7261)" class="st9" width="245.5" height="1.5"/>
					
						<rect x="672.9" y="325.6" transform="matrix(0.8657 0.5006 -0.5006 0.8657 270.2468 -354.4599)" class="st9" width="245.5" height="1.5"/>
					
						<rect x="668.4" y="333.3" transform="matrix(0.8657 0.5006 -0.5006 0.8657 273.5063 -351.1937)" class="st9" width="245.5" height="1.5"/>
					
						<rect x="664" y="341" transform="matrix(0.8657 0.5006 -0.5006 0.8657 276.7658 -347.9273)" class="st9" width="245.5" height="1.5"/>
					
						<rect x="659.5" y="348.8" transform="matrix(0.8657 0.5006 -0.5006 0.8657 280.0253 -344.6611)" class="st9" width="245.5" height="1.5"/>
					
						<rect x="650.6" y="364.2" transform="matrix(0.8657 0.5006 -0.5006 0.8657 286.5443 -338.1286)" class="st9" width="245.5" height="1.5"/>
					
						<rect x="641.7" y="379.6" transform="matrix(0.8657 0.5006 -0.5006 0.8657 293.0632 -331.5961)" class="st9" width="245.5" height="1.5"/>
					
						<rect x="632.8" y="395" transform="matrix(0.8657 0.5006 -0.5006 0.8657 299.5822 -325.0636)" class="st9" width="245.5" height="1.5"/>
					
						<rect x="623.9" y="410.4" transform="matrix(0.8657 0.5006 -0.5006 0.8657 306.1012 -318.5311)" class="st9" width="245.5" height="1.5"/>
					
						<rect x="614.9" y="425.8" transform="matrix(0.8657 0.5006 -0.5006 0.8657 312.6202 -311.9986)" class="st9" width="245.5" height="1.5"/>
					
						<rect x="606" y="441.2" transform="matrix(0.8657 0.5006 -0.5006 0.8657 319.1392 -305.4661)" class="st9" width="245.5" height="1.5"/>
					
						<rect x="597.1" y="456.7" transform="matrix(0.8657 0.5006 -0.5006 0.8657 325.6582 -298.9335)" class="st9" width="245.5" height="1.5"/>
					
						<rect x="588.2" y="472.1" transform="matrix(0.8657 0.5006 -0.5006 0.8657 332.1772 -292.401)" class="st9" width="245.5" height="1.5"/>
					
						<rect x="579.3" y="487.5" transform="matrix(0.8657 0.5006 -0.5006 0.8657 338.6961 -285.8685)" class="st9" width="245.5" height="1.5"/>
					
						<rect x="570.4" y="502.9" transform="matrix(0.8657 0.5006 -0.5006 0.8657 345.2151 -279.336)" class="st9" width="245.5" height="1.5"/>
					
						<rect x="561.5" y="518.3" transform="matrix(0.8657 0.5006 -0.5006 0.8657 351.7341 -272.8035)" class="st9" width="245.5" height="1.5"/>
					
						<rect x="552.5" y="533.7" transform="matrix(0.8657 0.5006 -0.5006 0.8657 358.2531 -266.271)" class="st9" width="245.5" height="1.5"/>
					
						<rect x="543.6" y="549.1" transform="matrix(0.8657 0.5006 -0.5006 0.8657 364.7722 -259.7384)" class="st9" width="245.5" height="1.5"/>
					
						<rect x="534.7" y="564.6" transform="matrix(0.8657 0.5006 -0.5006 0.8657 371.2911 -253.2059)" class="st9" width="245.5" height="1.5"/>
					
						<rect x="530.3" y="572.3" transform="matrix(0.8657 0.5006 -0.5006 0.8657 374.5506 -249.9397)" class="st9" width="245.5" height="1.5"/>
					
						<rect x="525.8" y="580" transform="matrix(0.8657 0.5006 -0.5006 0.8657 377.8101 -246.6734)" class="st9" width="245.5" height="1.5"/>
					
						<rect x="521.3" y="587.7" transform="matrix(0.8657 0.5006 -0.5006 0.8657 381.0695 -243.4072)" class="st9" width="245.5" height="1.5"/>
					
						<rect x="516.9" y="595.4" transform="matrix(0.8657 0.5006 -0.5006 0.8657 384.3291 -240.1409)" class="st9" width="245.5" height="1.5"/>
					
						<rect x="512.4" y="603.1" transform="matrix(0.8657 0.5006 -0.5006 0.8657 387.5886 -236.8746)" class="st9" width="245.5" height="1.5"/>
					
						<rect x="508" y="610.8" transform="matrix(0.8657 0.5006 -0.5006 0.8657 390.8481 -233.6084)" class="st9" width="245.5" height="1.5"/>
					
						<rect x="655.1" y="356.5" transform="matrix(0.8657 0.5006 -0.5006 0.8657 283.2848 -341.3949)" class="st9" width="245.5" height="1.5"/>
					
						<rect x="646.1" y="371.9" transform="matrix(0.8657 0.5006 -0.5006 0.8657 289.8037 -334.8624)" class="st9" width="245.5" height="1.5"/>
					
						<rect x="637.2" y="387.3" transform="matrix(0.8657 0.5006 -0.5006 0.8657 296.3227 -328.3299)" class="st9" width="245.5" height="1.5"/>
					
						<rect x="628.3" y="402.7" transform="matrix(0.8657 0.5006 -0.5006 0.8657 302.8417 -321.7973)" class="st9" width="245.5" height="1.5"/>
					
						<rect x="619.4" y="418.1" transform="matrix(0.8657 0.5006 -0.5006 0.8657 309.3607 -315.2648)" class="st9" width="245.5" height="1.5"/>
					
						<rect x="610.5" y="433.5" transform="matrix(0.8657 0.5006 -0.5006 0.8657 315.8797 -308.7323)" class="st9" width="245.5" height="1.5"/>
					
						<rect x="601.6" y="448.9" transform="matrix(0.8657 0.5006 -0.5006 0.8657 322.3987 -302.1998)" class="st9" width="245.5" height="1.5"/>
					
						<rect x="592.7" y="464.4" transform="matrix(0.8657 0.5006 -0.5006 0.8657 328.9176 -295.6673)" class="st9" width="245.5" height="1.5"/>
					
						<rect x="583.7" y="479.8" transform="matrix(0.8657 0.5006 -0.5006 0.8657 335.4367 -289.1347)" class="st9" width="245.5" height="1.5"/>
					
						<rect x="574.8" y="495.2" transform="matrix(0.8657 0.5006 -0.5006 0.8657 341.9557 -282.6022)" class="st9" width="245.5" height="1.5"/>
					
						<rect x="565.9" y="510.6" transform="matrix(0.8657 0.5006 -0.5006 0.8657 348.4747 -276.0697)" class="st9" width="245.5" height="1.5"/>
					
						<rect x="557" y="526" transform="matrix(0.8657 0.5006 -0.5006 0.8657 354.9936 -269.5372)" class="st9" width="245.5" height="1.5"/>
					
						<rect x="548.1" y="541.4" transform="matrix(0.8657 0.5006 -0.5006 0.8657 361.5126 -263.0047)" class="st9" width="245.5" height="1.5"/>
					
						<rect x="539.2" y="556.8" transform="matrix(0.8657 0.5006 -0.5006 0.8657 368.0316 -256.4722)" class="st9" width="245.5" height="1.5"/>
				</g>
			</g>
			<g>
				<text transform="matrix(1 0 0 1 679.962 390.7304)"><tspan x="0" y="0" class="st3 st4 st11 st12">The</tspan><tspan x="-57.1" y="38.5" class="st3 st4 st11 st12">PolyHack</tspan><tspan x="-68.5" y="77" class="st3 st4 st11 st12">Hackathon</tspan></text>
				<text transform="matrix(1 0 0 1 681.7725 392.542)"><tspan x="0" y="0" class="st9 st4 st11 st12">The</tspan><tspan x="-57.1" y="38.5" class="st9 st4 st11 st12">PolyHack</tspan><tspan x="-68.5" y="77" class="st9 st4 st11 st12">Hackathon</tspan></text>
			</g>
		</g>
		<g>
			<text transform="matrix(1 0 0 1 483.7726 438.0713)" class="st9 st13 st14">Apply</text>
			<rect x="483.8" y="444.3" class="st15" width="112.8" height="72.3"/>
			<text transform="matrix(1 0 0 1 483.7716 450.1074)" class="st16"><tspan x="0" y="0" class="st9 st13 st17">Lorem ipsum dolor sit amet, </tspan><tspan x="0" y="10.2" class="st9 st13 st17">consectetuer adipiscing elit. </tspan><tspan x="0" y="20.3" class="st9 st13 st17">Aenean commodo ligula eget </tspan><tspan x="0" y="30.5" class="st9 st13 st17">dolor. Aenean massa. Cum </tspan><tspan x="0" y="40.7" class="st9 st13 st17">sociis natoque penatibus et </tspan><tspan x="0" y="50.8" class="st9 st13 st17">magnis dis parturient montes, </tspan><tspan x="0" y="61" class="st9 st13 st17">nascetur ridiculus mus.enim.</tspan></text>
			<rect x="483.8" y="422.3" class="st18" width="123.6" height="1.7"/>
		</g>
	</g>
	<g>
		<g>
			<g>
				<defs>
					<path id="SVGID_3_" d="M770,95.9l-55.8-32.2c-2.1-1.2-4.4-1.8-6.7-1.8c-2.3,0-4.6,0.6-6.7,1.8l-53.2,30.7l-2.6,1.5
						c-4.1,2.4-6.7,6.8-6.7,11.5v64.5c0,3.1,1.1,6.1,3.1,8.5c1,1.2,2.2,2.3,3.6,3.1l55.8,32.2c4.1,2.4,9.2,2.4,13.3,0l55.8-32.2
						c4.1-2.4,6.7-6.8,6.7-11.5v-64.5C776.6,102.7,774.1,98.3,770,95.9z"/>
				</defs>
				<clipPath id="SVGID_4_">
					<use xlink:href="#SVGID_3_"  style="overflow:visible;"/>
				</clipPath>
				<g class="st19">
					
						<rect x="686.1" y="40.4" transform="matrix(0.8657 0.5006 -0.5006 0.8657 123.1927 -377.3915)" class="st9" width="157.6" height="0.9"/>
					
						<rect x="683.2" y="45.3" transform="matrix(0.8657 0.5006 -0.5006 0.8657 125.2845 -375.2954)" class="st9" width="157.6" height="0.9"/>
					
						<rect x="680.3" y="50.3" transform="matrix(0.8657 0.5006 -0.5006 0.8657 127.3762 -373.1993)" class="st9" width="157.6" height="0.9"/>
					
						<rect x="677.5" y="55.2" transform="matrix(0.8657 0.5006 -0.5006 0.8657 129.468 -371.1033)" class="st9" width="157.6" height="0.9"/>
					
						<rect x="674.6" y="60.2" transform="matrix(0.8657 0.5006 -0.5006 0.8657 131.5597 -369.0072)" class="st9" width="157.6" height="0.9"/>
					
						<rect x="671.8" y="65.1" transform="matrix(0.8657 0.5006 -0.5006 0.8657 133.6515 -366.9111)" class="st9" width="157.6" height="0.9"/>
					
						<rect x="666" y="75" transform="matrix(0.8657 0.5006 -0.5006 0.8657 137.8349 -362.7189)" class="st9" width="157.6" height="0.9"/>
					
						<rect x="660.3" y="84.9" transform="matrix(0.8657 0.5006 -0.5006 0.8657 142.0184 -358.5268)" class="st9" width="157.6" height="0.9"/>
					
						<rect x="654.6" y="94.8" transform="matrix(0.8657 0.5006 -0.5006 0.8657 146.2019 -354.3346)" class="st9" width="157.6" height="0.9"/>
					
						<rect x="648.9" y="104.7" transform="matrix(0.8657 0.5006 -0.5006 0.8657 150.3854 -350.1424)" class="st9" width="157.6" height="0.9"/>
					
						<rect x="643.2" y="114.6" transform="matrix(0.8657 0.5006 -0.5006 0.8657 154.5689 -345.9503)" class="st9" width="157.6" height="0.9"/>
					
						<rect x="637.4" y="124.5" transform="matrix(0.8657 0.5006 -0.5006 0.8657 158.7524 -341.7581)" class="st9" width="157.6" height="0.9"/>
					
						<rect x="631.7" y="134.4" transform="matrix(0.8657 0.5006 -0.5006 0.8657 162.9359 -337.5659)" class="st9" width="157.6" height="0.9"/>
					
						<rect x="626" y="144.3" transform="matrix(0.8657 0.5006 -0.5006 0.8657 167.1194 -333.3738)" class="st9" width="157.6" height="0.9"/>
					
						<rect x="620.3" y="154.2" transform="matrix(0.8657 0.5006 -0.5006 0.8657 171.3028 -329.1816)" class="st9" width="157.6" height="0.9"/>
					
						<rect x="614.6" y="164" transform="matrix(0.8657 0.5006 -0.5006 0.8657 175.4863 -324.9894)" class="st9" width="157.6" height="0.9"/>
					
						<rect x="608.8" y="173.9" transform="matrix(0.8657 0.5006 -0.5006 0.8657 179.6698 -320.7973)" class="st9" width="157.6" height="0.9"/>
					
						<rect x="603.1" y="183.8" transform="matrix(0.8657 0.5006 -0.5006 0.8657 183.8533 -316.6051)" class="st9" width="157.6" height="0.9"/>
					
						<rect x="597.4" y="193.7" transform="matrix(0.8657 0.5006 -0.5006 0.8657 188.0368 -312.4129)" class="st9" width="157.6" height="0.9"/>
					
						<rect x="591.7" y="203.6" transform="matrix(0.8657 0.5006 -0.5006 0.8657 192.2203 -308.2208)" class="st9" width="157.6" height="0.9"/>
					
						<rect x="588.8" y="208.6" transform="matrix(0.8657 0.5006 -0.5006 0.8657 194.312 -306.1247)" class="st9" width="157.6" height="0.9"/>
					
						<rect x="586" y="213.5" transform="matrix(0.8657 0.5006 -0.5006 0.8657 196.4038 -304.0286)" class="st9" width="157.6" height="0.9"/>
					
						<rect x="583.1" y="218.5" transform="matrix(0.8657 0.5006 -0.5006 0.8657 198.4955 -301.9326)" class="st9" width="157.6" height="0.9"/>
					
						<rect x="580.2" y="223.4" transform="matrix(0.8657 0.5006 -0.5006 0.8657 200.5872 -299.8365)" class="st9" width="157.6" height="0.9"/>
					
						<rect x="577.4" y="228.3" transform="matrix(0.8657 0.5006 -0.5006 0.8657 202.679 -297.7403)" class="st9" width="157.6" height="0.9"/>
					
						<rect x="574.5" y="233.3" transform="matrix(0.8657 0.5006 -0.5006 0.8657 204.7707 -295.6443)" class="st9" width="157.6" height="0.9"/>
					
						<rect x="668.9" y="70.1" transform="matrix(0.8657 0.5006 -0.5006 0.8657 135.7432 -364.815)" class="st9" width="157.6" height="0.9"/>
					
						<rect x="663.2" y="80" transform="matrix(0.8657 0.5006 -0.5006 0.8657 139.9267 -360.6229)" class="st9" width="157.6" height="0.9"/>
					
						<rect x="657.5" y="89.9" transform="matrix(0.8657 0.5006 -0.5006 0.8657 144.1102 -356.4307)" class="st9" width="157.6" height="0.9"/>
					
						<rect x="651.7" y="99.8" transform="matrix(0.8657 0.5006 -0.5006 0.8657 148.2937 -352.2385)" class="st9" width="157.6" height="0.9"/>
					
						<rect x="646" y="109.6" transform="matrix(0.8657 0.5006 -0.5006 0.8657 152.4771 -348.0464)" class="st9" width="157.6" height="0.9"/>
					
						<rect x="640.3" y="119.5" transform="matrix(0.8657 0.5006 -0.5006 0.8657 156.6606 -343.8542)" class="st9" width="157.6" height="0.9"/>
					
						<rect x="634.6" y="129.4" transform="matrix(0.8657 0.5006 -0.5006 0.8657 160.8441 -339.662)" class="st9" width="157.6" height="0.9"/>
					
						<rect x="628.9" y="139.3" transform="matrix(0.8657 0.5006 -0.5006 0.8657 165.0276 -335.4699)" class="st9" width="157.6" height="0.9"/>
					
						<rect x="623.1" y="149.2" transform="matrix(0.8657 0.5006 -0.5006 0.8657 169.2111 -331.2776)" class="st9" width="157.6" height="0.9"/>
					
						<rect x="617.4" y="159.1" transform="matrix(0.8657 0.5006 -0.5006 0.8657 173.3946 -327.0855)" class="st9" width="157.6" height="0.9"/>
					
						<rect x="611.7" y="169" transform="matrix(0.8657 0.5006 -0.5006 0.8657 177.5781 -322.8933)" class="st9" width="157.6" height="0.9"/>
					
						<rect x="606" y="178.9" transform="matrix(0.8657 0.5006 -0.5006 0.8657 181.7616 -318.7012)" class="st9" width="157.6" height="0.9"/>
					
						<rect x="600.3" y="188.8" transform="matrix(0.8657 0.5006 -0.5006 0.8657 185.945 -314.509)" class="st9" width="157.6" height="0.9"/>
					
						<rect x="594.5" y="198.7" transform="matrix(0.8657 0.5006 -0.5006 0.8657 190.1285 -310.3169)" class="st9" width="157.6" height="0.9"/>
				</g>
			</g>
			<g>
				<text transform="matrix(1 0 0 1 677.5586 97.8204)"><tspan x="0" y="0" class="st3 st4 st20 st21">Post</tspan><tspan x="-36.6" y="24.7" class="st3 st4 st20 st21">Hackathon</tspan><tspan x="-36.6" y="49.4" class="st3 st4 st20 st21">Workshops</tspan></text>
				<text transform="matrix(1 0 0 1 678.7227 98.9835)"><tspan x="0" y="0" class="st9 st4 st20 st21">Post</tspan><tspan x="-36.6" y="24.7" class="st9 st4 st20 st21">Hackathon</tspan><tspan x="-36.6" y="49.4" class="st9 st4 st20 st21">Workshops</tspan></text>
			</g>
			<g>
				<text transform="matrix(1 0 0 1 644.709 175.5825)"><tspan x="0" y="0" class="st3 st4 st22 st23">Jan-Feb</tspan><tspan x="103.1" y="0" class="st3 st4 st24 st21">2016</tspan></text>
				<text transform="matrix(1 0 0 1 645.6523 176.5259)"><tspan x="0" y="0" class="st9 st4 st22 st23">Jan-Feb</tspan><tspan x="103.1" y="0" class="st9 st4 st24 st21">2016</tspan></text>
			</g>
		</g>
		<g>
			<text transform="matrix(1 0 0 1 484.4521 171.1548)" class="st9 st13 st25">Reflect</text>
			<rect x="484.5" y="178.9" class="st15" width="158.5" height="90"/>
			<text transform="matrix(1 0 0 1 484.4521 186.1373)" class="st16"><tspan x="0" y="0" class="st9 st13 st26">Lorem ipsum dolor sit amet, </tspan><tspan x="0" y="12.7" class="st9 st13 st26">consectetuer adipiscing elit. Aenean </tspan><tspan x="0" y="25.3" class="st9 st13 st26">commodo ligula eget dolor. Aenean </tspan><tspan x="0" y="38" class="st9 st13 st26">massa. Cum sociis natoque </tspan><tspan x="0" y="50.6" class="st9 st13 st26">penatibus et magnis dis parturient </tspan><tspan x="0" y="63.3" class="st9 st13 st26">montes, nascetur ridiculus mus.enim.</tspan></text>
			<rect x="484.5" y="151.9" class="st18" width="153.9" height="1.1"/>
		</g>
	</g>
	<g>
		<g>
			<g>
				<defs>
					<path id="SVGID_5_" d="M185.6,69.5l-70.8-40.9c-2.6-1.5-5.5-2.3-8.4-2.3c-2.9,0-5.8,0.8-8.4,2.3l-67.5,39L27,69.5
						c-5.2,3-8.4,8.6-8.4,14.6v81.8c0,3.9,1.4,7.7,3.9,10.8c1.3,1.6,2.8,2.9,4.6,3.9l70.8,40.9c5.2,3,11.7,3,16.9,0l70.8-40.9
						c5.2-3,8.4-8.6,8.4-14.6V84.1C194,78.1,190.8,72.5,185.6,69.5z"/>
				</defs>
				<clipPath id="SVGID_6_">
					<use xlink:href="#SVGID_5_"  style="overflow:visible;"/>
				</clipPath>
				<g class="st27">
					
						<rect x="79.2" y="-0.9" transform="matrix(0.8657 0.5006 -0.5006 0.8657 23.9052 -89.7109)" class="st9" width="199.9" height="1.2"/>
					
						<rect x="75.6" y="5.4" transform="matrix(0.8657 0.5006 -0.5006 0.8657 26.5585 -87.052)" class="st9" width="199.9" height="1.2"/>
					
						<rect x="71.9" y="11.6" transform="matrix(0.8657 0.5006 -0.5006 0.8657 29.2119 -84.3931)" class="st9" width="199.9" height="1.2"/>
					
						<rect x="68.3" y="17.9" transform="matrix(0.8657 0.5006 -0.5006 0.8657 31.8653 -81.7342)" class="st9" width="199.9" height="1.2"/>
					
						<rect x="64.7" y="24.2" transform="matrix(0.8657 0.5006 -0.5006 0.8657 34.5187 -79.0753)" class="st9" width="199.9" height="1.2"/>
					
						<rect x="61" y="30.5" transform="matrix(0.8657 0.5006 -0.5006 0.8657 37.1721 -76.4164)" class="st9" width="199.9" height="1.2"/>
					
						<rect x="53.8" y="43" transform="matrix(0.8657 0.5006 -0.5006 0.8657 42.4789 -71.0986)" class="st9" width="199.9" height="1.2"/>
					
						<rect x="46.5" y="55.6" transform="matrix(0.8657 0.5006 -0.5006 0.8657 47.7857 -65.7808)" class="st9" width="199.9" height="1.2"/>
					
						<rect x="39.3" y="68.1" transform="matrix(0.8657 0.5006 -0.5006 0.8657 53.0925 -60.463)" class="st9" width="199.9" height="1.2"/>
					
						<rect x="32" y="80.7" transform="matrix(0.8657 0.5006 -0.5006 0.8657 58.3992 -55.1452)" class="st9" width="199.9" height="1.2"/>
					
						<rect x="24.8" y="93.2" transform="matrix(0.8657 0.5006 -0.5006 0.8657 63.706 -49.8274)" class="st9" width="199.9" height="1.2"/>
					
						<rect x="17.5" y="105.8" transform="matrix(0.8657 0.5006 -0.5006 0.8657 69.0128 -44.5097)" class="st9" width="199.9" height="1.2"/>
					
						<rect x="10.3" y="118.3" transform="matrix(0.8657 0.5006 -0.5006 0.8657 74.3196 -39.1919)" class="st9" width="199.9" height="1.2"/>
					
						<rect x="3" y="130.8" transform="matrix(0.8657 0.5006 -0.5006 0.8657 79.6263 -33.8741)" class="st9" width="199.9" height="1.2"/>
					
						<rect x="-4.3" y="143.4" transform="matrix(0.8657 0.5006 -0.5006 0.8657 84.9331 -28.5563)" class="st9" width="199.9" height="1.2"/>
					
						<rect x="-11.5" y="155.9" transform="matrix(0.8657 0.5006 -0.5006 0.8657 90.2399 -23.2385)" class="st9" width="199.9" height="1.2"/>
					
						<rect x="-18.8" y="168.5" transform="matrix(0.8657 0.5006 -0.5006 0.8657 95.5466 -17.9208)" class="st9" width="199.9" height="1.2"/>
					
						<rect x="-26" y="181" transform="matrix(0.8657 0.5006 -0.5006 0.8657 100.8534 -12.603)" class="st9" width="199.9" height="1.2"/>
					
						<rect x="-33.3" y="193.6" transform="matrix(0.8657 0.5006 -0.5006 0.8657 106.1603 -7.2851)" class="st9" width="199.9" height="1.2"/>
					
						<rect x="-40.5" y="206.1" transform="matrix(0.8657 0.5006 -0.5006 0.8657 111.467 -1.9673)" class="st9" width="199.9" height="1.2"/>
					
						<rect x="-44.2" y="212.4" transform="matrix(0.8657 0.5006 -0.5006 0.8657 114.1204 0.6915)" class="st9" width="199.9" height="1.2"/>
					
						<rect x="-47.8" y="218.7" transform="matrix(0.8657 0.5006 -0.5006 0.8657 116.7738 3.3504)" class="st9" width="199.9" height="1.2"/>
					
						<rect x="-51.4" y="225" transform="matrix(0.8657 0.5006 -0.5006 0.8657 119.4271 6.0093)" class="st9" width="199.9" height="1.2"/>
					
						<rect x="-55" y="231.2" transform="matrix(0.8657 0.5006 -0.5006 0.8657 122.0806 8.6682)" class="st9" width="199.9" height="1.2"/>
					
						<rect x="-58.7" y="237.5" transform="matrix(0.8657 0.5006 -0.5006 0.8657 124.734 11.3271)" class="st9" width="199.9" height="1.2"/>
					
						<rect x="-62.3" y="243.8" transform="matrix(0.8657 0.5006 -0.5006 0.8657 127.3873 13.986)" class="st9" width="199.9" height="1.2"/>
					
						<rect x="57.4" y="36.7" transform="matrix(0.8657 0.5006 -0.5006 0.8657 39.8255 -73.7575)" class="st9" width="199.9" height="1.2"/>
					
						<rect x="50.2" y="49.3" transform="matrix(0.8657 0.5006 -0.5006 0.8657 45.1323 -68.4397)" class="st9" width="199.9" height="1.2"/>
					
						<rect x="42.9" y="61.8" transform="matrix(0.8657 0.5006 -0.5006 0.8657 50.439 -63.1219)" class="st9" width="199.9" height="1.2"/>
					
						<rect x="35.7" y="74.4" transform="matrix(0.8657 0.5006 -0.5006 0.8657 55.7458 -57.8041)" class="st9" width="199.9" height="1.2"/>
					
						<rect x="28.4" y="86.9" transform="matrix(0.8657 0.5006 -0.5006 0.8657 61.0526 -52.4863)" class="st9" width="199.9" height="1.2"/>
					
						<rect x="21.1" y="99.5" transform="matrix(0.8657 0.5006 -0.5006 0.8657 66.3594 -47.1686)" class="st9" width="199.9" height="1.2"/>
					
						<rect x="13.9" y="112" transform="matrix(0.8657 0.5006 -0.5006 0.8657 71.6661 -41.8508)" class="st9" width="199.9" height="1.2"/>
					
						<rect x="6.6" y="124.6" transform="matrix(0.8657 0.5006 -0.5006 0.8657 76.9729 -36.533)" class="st9" width="199.9" height="1.2"/>
					
						<rect x="-0.6" y="137.1" transform="matrix(0.8657 0.5006 -0.5006 0.8657 82.2798 -31.2152)" class="st9" width="199.9" height="1.2"/>
					
						<rect x="-7.9" y="149.7" transform="matrix(0.8657 0.5006 -0.5006 0.8657 87.5865 -25.8974)" class="st9" width="199.9" height="1.2"/>
					
						<rect x="-15.1" y="162.2" transform="matrix(0.8657 0.5006 -0.5006 0.8657 92.8933 -20.5796)" class="st9" width="199.9" height="1.2"/>
					
						<rect x="-22.4" y="174.8" transform="matrix(0.8657 0.5006 -0.5006 0.8657 98.2001 -15.2618)" class="st9" width="199.9" height="1.2"/>
					
						<rect x="-29.7" y="187.3" transform="matrix(0.8657 0.5006 -0.5006 0.8657 103.5068 -9.944)" class="st9" width="199.9" height="1.2"/>
					
						<rect x="-36.9" y="199.9" transform="matrix(0.8657 0.5006 -0.5006 0.8657 108.8136 -4.6263)" class="st9" width="199.9" height="1.2"/>
				</g>
			</g>
			<g>
				<text transform="matrix(1 0 0 1 25.7711 94.7437)" class="st3 st4 st28 st12">Seminar</text>
				<text transform="matrix(1 0 0 1 27.5748 96.5494)" class="st9 st4 st28 st12">Seminar</text>
			</g>
			<g>
				<text transform="matrix(1 0 0 1 26.7349 137.8883)"><tspan x="0" y="0" class="st3 st4 st29 st8">14</tspan><tspan x="59.8" y="0" class="st3 st4 st29 st30">/10</tspan><tspan x="118.1" y="0" class="st3 st4 st31 st32">/</tspan><tspan x="123.8" y="0" class="st3 st4 st31 st21">2015</tspan><tspan x="10.2" y="30.6" class="st3 st4 st33 st21">6pm-7:30pm</tspan><tspan x="44.6" y="61.2" class="st3 st4 st33 st21">HJ305</tspan></text>
				<text transform="matrix(1 0 0 1 27.8277 138.9801)"><tspan x="0" y="0" class="st9 st4 st29 st8">14</tspan><tspan x="59.8" y="0" class="st9 st4 st29 st30">/10</tspan><tspan x="118.1" y="0" class="st9 st4 st31 st32">/</tspan><tspan x="123.8" y="0" class="st9 st4 st31 st21">2015</tspan><tspan x="10.2" y="30.6" class="st9 st4 st33 st21">6pm-7:30pm</tspan><tspan x="44.6" y="61.2" class="st9 st4 st33 st21">HJ305</tspan></text>
			</g>
		</g>
		<g>
			<text transform="matrix(1 0 0 1 215.5821 111.1803)" class="st9 st13 st34">Feel</text>
			<rect x="215.6" y="119" class="st15" width="159.5" height="90.6"/>
			<text transform="matrix(1 0 0 1 215.582 126.2652)" class="st16"><tspan x="0" y="0" class="st9 st13 st35">Lorem ipsum dolor sit amet, </tspan><tspan x="0" y="12.7" class="st9 st13 st35">consectetuer adipiscing elit. Aenean </tspan><tspan x="0" y="25.5" class="st9 st13 st35">commodo ligula eget dolor. Aenean </tspan><tspan x="0" y="38.2" class="st9 st13 st35">massa. Cum sociis natoque </tspan><tspan x="0" y="51" class="st9 st13 st35">penatibus et magnis dis parturient </tspan><tspan x="0" y="63.7" class="st9 st13 st35">montes, nascetur ridiculus mus.enim.</tspan></text>
			<rect x="194" y="91.4" class="st18" width="176.4" height="1.4"/>
		</g>
	</g>
	<g>
		<g>
			<g>
				<defs>
					<path id="SVGID_7_" d="M196.9,344.8l-77.4-44.7c-2.8-1.6-6-2.5-9.2-2.5c-3.2,0-6.4,0.8-9.2,2.5l-73.8,42.6l-3.6,2.1
						c-5.7,3.3-9.2,9.4-9.2,16v89.4c0,4.3,1.5,8.4,4.2,11.8c1.4,1.7,3.1,3.1,5,4.2l77.4,44.7c5.7,3.3,12.8,3.3,18.5,0l77.4-44.7
						c5.7-3.3,9.2-9.4,9.2-16v-89.4C206.1,354.2,202.6,348.1,196.9,344.8z"/>
				</defs>
				<clipPath id="SVGID_8_">
					<use xlink:href="#SVGID_7_"  style="overflow:visible;"/>
				</clipPath>
				<g class="st36">
					
						<rect x="80.6" y="267.8" transform="matrix(0.8657 0.5006 -0.5006 0.8657 159.8995 -58.9492)" class="st9" width="218.4" height="1.3"/>
					
						<rect x="76.6" y="274.7" transform="matrix(0.8657 0.5006 -0.5006 0.8657 162.7987 -56.044)" class="st9" width="218.4" height="1.3"/>
					
						<rect x="72.7" y="281.6" transform="matrix(0.8657 0.5006 -0.5006 0.8657 165.6979 -53.1388)" class="st9" width="218.4" height="1.3"/>
					
						<rect x="68.7" y="288.4" transform="matrix(0.8657 0.5006 -0.5006 0.8657 168.5972 -50.2335)" class="st9" width="218.4" height="1.3"/>
					
						<rect x="64.7" y="295.3" transform="matrix(0.8657 0.5006 -0.5006 0.8657 171.4964 -47.3282)" class="st9" width="218.4" height="1.3"/>
					
						<rect x="60.8" y="302.1" transform="matrix(0.8657 0.5006 -0.5006 0.8657 174.3957 -44.423)" class="st9" width="218.4" height="1.3"/>
					
						<rect x="52.9" y="315.8" transform="matrix(0.8657 0.5006 -0.5006 0.8657 180.1941 -38.6125)" class="st9" width="218.4" height="1.3"/>
					
						<rect x="44.9" y="329.5" transform="matrix(0.8657 0.5006 -0.5006 0.8657 185.9926 -32.802)" class="st9" width="218.4" height="1.3"/>
					
						<rect x="37" y="343.2" transform="matrix(0.8657 0.5006 -0.5006 0.8657 191.7911 -26.9915)" class="st9" width="218.4" height="1.3"/>
					
						<rect x="29.1" y="357" transform="matrix(0.8657 0.5006 -0.5006 0.8657 197.5895 -21.181)" class="st9" width="218.4" height="1.3"/>
					
						<rect x="21.1" y="370.7" transform="matrix(0.8657 0.5006 -0.5006 0.8657 203.388 -15.3705)" class="st9" width="218.4" height="1.3"/>
					
						<rect x="13.2" y="384.4" transform="matrix(0.8657 0.5006 -0.5006 0.8657 209.1864 -9.5601)" class="st9" width="218.4" height="1.3"/>
					
						<rect x="5.3" y="398.1" transform="matrix(0.8657 0.5006 -0.5006 0.8657 214.9849 -3.7495)" class="st9" width="218.4" height="1.3"/>
					
						<rect x="-2.6" y="411.8" transform="matrix(0.8657 0.5006 -0.5006 0.8657 220.7834 2.0609)" class="st9" width="218.4" height="1.3"/>
					
						<rect x="-10.6" y="425.5" transform="matrix(0.8657 0.5006 -0.5006 0.8657 226.5818 7.8714)" class="st9" width="218.4" height="1.3"/>
					
						<rect x="-18.5" y="439.2" transform="matrix(0.8657 0.5006 -0.5006 0.8657 232.3802 13.6819)" class="st9" width="218.4" height="1.3"/>
					
						<rect x="-26.4" y="452.9" transform="matrix(0.8657 0.5006 -0.5006 0.8657 238.1787 19.4924)" class="st9" width="218.4" height="1.3"/>
					
						<rect x="-34.4" y="466.6" transform="matrix(0.8657 0.5006 -0.5006 0.8657 243.9772 25.3029)" class="st9" width="218.4" height="1.3"/>
					
						<rect x="-42.3" y="480.4" transform="matrix(0.8657 0.5006 -0.5006 0.8657 249.7757 31.1134)" class="st9" width="218.4" height="1.3"/>
					
						<rect x="-50.2" y="494.1" transform="matrix(0.8657 0.5006 -0.5006 0.8657 255.5742 36.9239)" class="st9" width="218.4" height="1.3"/>
					
						<rect x="-54.2" y="500.9" transform="matrix(0.8657 0.5006 -0.5006 0.8657 258.4733 39.8291)" class="st9" width="218.4" height="1.3"/>
					
						<rect x="-58.1" y="507.8" transform="matrix(0.8657 0.5006 -0.5006 0.8657 261.3726 42.7344)" class="st9" width="218.4" height="1.3"/>
					
						<rect x="-62.1" y="514.6" transform="matrix(0.8657 0.5006 -0.5006 0.8657 264.2718 45.6396)" class="st9" width="218.4" height="1.3"/>
					
						<rect x="-66.1" y="521.5" transform="matrix(0.8657 0.5006 -0.5006 0.8657 267.1711 48.5449)" class="st9" width="218.4" height="1.3"/>
					
						<rect x="-70" y="528.3" transform="matrix(0.8657 0.5006 -0.5006 0.8657 270.0703 51.4501)" class="st9" width="218.4" height="1.3"/>
					
						<rect x="-74" y="535.2" transform="matrix(0.8657 0.5006 -0.5006 0.8657 272.9695 54.3553)" class="st9" width="218.4" height="1.3"/>
					
						<rect x="56.8" y="309" transform="matrix(0.8657 0.5006 -0.5006 0.8657 177.2949 -41.5178)" class="st9" width="218.4" height="1.3"/>
					
						<rect x="48.9" y="322.7" transform="matrix(0.8657 0.5006 -0.5006 0.8657 183.0933 -35.7073)" class="st9" width="218.4" height="1.3"/>
					
						<rect x="41" y="336.4" transform="matrix(0.8657 0.5006 -0.5006 0.8657 188.8918 -29.8968)" class="st9" width="218.4" height="1.3"/>
					
						<rect x="33" y="350.1" transform="matrix(0.8657 0.5006 -0.5006 0.8657 194.6903 -24.0863)" class="st9" width="218.4" height="1.3"/>
					
						<rect x="25.1" y="363.8" transform="matrix(0.8657 0.5006 -0.5006 0.8657 200.4887 -18.2758)" class="st9" width="218.4" height="1.3"/>
					
						<rect x="17.2" y="377.5" transform="matrix(0.8657 0.5006 -0.5006 0.8657 206.2872 -12.4653)" class="st9" width="218.4" height="1.3"/>
					
						<rect x="9.2" y="391.2" transform="matrix(0.8657 0.5006 -0.5006 0.8657 212.0856 -6.6548)" class="st9" width="218.4" height="1.3"/>
					
						<rect x="1.3" y="404.9" transform="matrix(0.8657 0.5006 -0.5006 0.8657 217.8841 -0.8444)" class="st9" width="218.4" height="1.3"/>
					
						<rect x="-6.6" y="418.7" transform="matrix(0.8657 0.5006 -0.5006 0.8657 223.6826 4.9662)" class="st9" width="218.4" height="1.3"/>
					
						<rect x="-14.5" y="432.4" transform="matrix(0.8657 0.5006 -0.5006 0.8657 229.4811 10.7767)" class="st9" width="218.4" height="1.3"/>
					
						<rect x="-22.5" y="446.1" transform="matrix(0.8657 0.5006 -0.5006 0.8657 235.2795 16.5872)" class="st9" width="218.4" height="1.3"/>
					
						<rect x="-30.4" y="459.8" transform="matrix(0.8657 0.5006 -0.5006 0.8657 241.078 22.3977)" class="st9" width="218.4" height="1.3"/>
					
						<rect x="-38.3" y="473.5" transform="matrix(0.8657 0.5006 -0.5006 0.8657 246.8764 28.2081)" class="st9" width="218.4" height="1.3"/>
					
						<rect x="-46.3" y="487.2" transform="matrix(0.8657 0.5006 -0.5006 0.8657 252.6749 34.0186)" class="st9" width="218.4" height="1.3"/>
				</g>
			</g>
			<g>
				<text transform="matrix(1 0 0 1 18.5244 372.3496)" class="st3 st4 st37 st12">Workshops</text>
				<text transform="matrix(1 0 0 1 20.4961 374.3223)" class="st9 st4 st37 st12">Workshops</text>
			</g>
			<g>
				<text transform="matrix(1 0 0 1 14.2686 419.4912)"><tspan x="0" y="0" class="st3 st4 st38 st8">9</tspan><tspan x="31" y="0" class="st3 st4 st39 st21">,</tspan><tspan x="41.9" y="0" class="st3 st4 st38 st8">16</tspan><tspan x="104" y="0" class="st3 st4 st40 st41">/1</tspan><tspan x="146.5" y="0" class="st3 st4 st42 st32">/</tspan><tspan x="152.7" y="0" class="st3 st4 st42 st21">2016</tspan><tspan x="19.9" y="33.4" class="st3 st4 st43 st21">6pm-7:30pm</tspan><tspan x="65" y="66.8" class="st3 st4 st43 st21">R506</tspan></text>
				<text transform="matrix(1 0 0 1 15.4619 420.6846)"><tspan x="0" y="0" class="st9 st4 st38 st8">9</tspan><tspan x="31" y="0" class="st9 st4 st39 st21">,</tspan><tspan x="41.9" y="0" class="st9 st4 st38 st8">16</tspan><tspan x="104" y="0" class="st9 st4 st40 st41">/1</tspan><tspan x="146.5" y="0" class="st9 st4 st42 st32">/</tspan><tspan x="152.7" y="0" class="st9 st4 st42 st21">2016</tspan><tspan x="19.9" y="33.4" class="st9 st4 st43 st21">6pm-7:30pm</tspan><tspan x="65" y="66.8" class="st9 st4 st43 st21">R506</tspan></text>
			</g>
		</g>
		<g>
			<text transform="matrix(1 0 0 1 201.1001 474.8135)" class="st9 st13 st44">Experience</text>
			<rect x="201.1" y="481.3" class="st15" width="132.6" height="75.3"/>
			<text transform="matrix(1 0 0 1 201.1001 487.3467)" class="st16"><tspan x="0" y="0" class="st9 st13 st45">Lorem ipsum dolor sit amet, </tspan><tspan x="0" y="10.6" class="st9 st13 st45">consectetuer adipiscing elit. Aenean </tspan><tspan x="0" y="21.2" class="st9 st13 st45">commodo ligula eget dolor. Aenean </tspan><tspan x="0" y="31.8" class="st9 st13 st45">massa. Cum sociis natoque </tspan><tspan x="0" y="42.3" class="st9 st13 st45">penatibus et magnis dis parturient </tspan><tspan x="0" y="52.9" class="st9 st13 st45">montes, nascetur ridiculus mus.enim.</tspan></text>
			<path class="st18" d="M202.9,458.3c-1.6-0.2-3.2-0.6-4.8-1.3l5.4,3.1l0,0h126.3v-1.8H202.9z"/>
		</g>
	</g>
</g>
</svg>
