<?xml version="1.0" encoding="utf-8"?>
<!-- Generator: Adobe Illustrator 19.1.0, SVG Export Plug-In . SVG Version: 6.00 Build 0)  -->
<svg version="1.1" id="Layer_1" xmlns="http://www.w3.org/2000/svg" xmlns:xlink="http://www.w3.org/1999/xlink" x="0px" y="0px"
	 viewBox="0 0 501.3 500" style="enable-background:new 0 0 501.3 500;" xml:space="preserve">
<style type="text/css">
	.st0{fill:#F7F8F9;}
</style>
<g>
	<path class="st0" d="M64.3,500C29.3,500.6,0,474.2,0,435C0.1,311.5,0,188.1,0,64.7C0,25.3,29.4-0.2,64.7,0
		c124.2,0.7,248.5,0.3,372.7,0.3c38.5,0,63.9,25.4,63.9,63.9c0,124-0.2,248,0.2,371.9c0.1,36.8-28.1,64.4-63.6,63.8L64.3,500z
		 M399.3,211c10.3,48.5,3,92.4-26.6,131.1c-29.5,38.7-69.2,59-117.8,60.5c-39.8,1.3-75.3-11.4-104.8-38.1
		c-45.5-41.2-59.9-92.9-47.6-153.5c-12.8,0-24.5,0.4-36.1-0.1c-7.2-0.3-9.3,2.1-9.3,9.3c0.2,65.9,0.1,131.9,0.2,197.8
		c0,18,6.6,24.5,24.7,24.5c112.2,0,224.5,0,336.7,0c18.4,0,25.1-6.6,25.1-25c0-65.7,0-131.3,0-197c0-1.6,0.5-3.6-0.2-4.8
		c-1-1.8-2.8-4.4-4.3-4.4C426.6,210.9,413.8,211,399.3,211z M156.8,250.1c0.4,52.4,43.2,95.2,94.7,94.5c52.4-0.7,93.9-43,93.6-95.5
		c-0.2-51.6-43.5-94.3-94.7-93.7C198.4,156.1,156.4,198.5,156.8,250.1z M422.9,154.6c12.4-0.2,20.7-8,20.9-20.3
		c0.3-18.5,0.3-37,0-55.5c-0.2-12.2-8.5-20.1-20.8-20.2c-18.2-0.1-36.4-0.1-54.7,0c-12.2,0.1-20.4,8.3-20.5,20.6
		c-0.2,18.2-0.2,36.4,0,54.7c0.1,12.2,8.3,20.4,20.5,20.7L422.9,154.6z"/>
</g>
</svg>
