<?xml version="1.0" encoding="utf-8"?>
<!-- Generator: Adobe Illustrator 19.1.0, SVG Export Plug-In . SVG Version: 6.00 Build 0)  -->
<svg version="1.1" xmlns="http://www.w3.org/2000/svg" xmlns:xlink="http://www.w3.org/1999/xlink" x="0px" y="0px"
	 viewBox="0 0 500 500" style="enable-background:new 0 0 500 500;" xml:space="preserve">
<style type="text/css">
	.st0{display:none;}
	.st1{display:inline;fill:#FFFFFF;stroke:#231F20;stroke-miterlimit:10;}
	.st2{fill:#FFFFFF;}
</style>
<g id="Layer_2" class="st0">
	<circle class="st1" cx="250" cy="250" r="250"/>
</g>
<g id="Layer_1">
	<g>
		<path class="st2" d="M249.7,355.1c-12,0-23.9,0.1-35.9,0c-10.6-0.1-15.9-3.6-17.6-14.2c-3.6-23-11.1-44.5-22.8-64.6
			c-6.4-11-12.9-22-19.2-33.2c-9.2-16.3-16.9-33.4-20.5-51.6c-4.3-22-2.3-43.8,6.7-64.7c14-32.3,38.4-53,71.8-62.4
			c43.9-12.3,85-5.9,120.2,24.3c24.8,21.2,36.2,49.5,36.1,81.7c-0.1,21-6.2,41.2-16.1,59.9c-8.2,15.6-17.1,30.8-25.8,46.2
			c-10.6,18.6-18.6,38-21.6,59.4c-0.3,2.4-0.9,4.8-1.6,7.1c-2.4,8.2-6.9,11.8-15.5,11.9C275.2,355.2,262.5,355,249.7,355.1
			C249.7,355.1,249.7,355.1,249.7,355.1z M249.9,339.9C249.9,339.9,249.9,339.9,249.9,339.9c11.6,0,23.3-0.1,34.9,0
			c3.2,0,4.4-1,5.1-4.2c2.4-10.5,3.8-21.6,8.1-31.3c8.5-19,18.6-37.3,28.2-55.8c5.4-10.3,11.5-20.2,16.7-30.7
			c6.4-13.1,9.1-27.3,10.1-41.7c1.9-27.1-6.2-51-25-70.6c-27-28-60.7-37.3-98.2-30.6c-66.9,11.9-102.2,75.1-73,141.5
			c6.4,14.6,14.8,28.4,22.8,42.2c14,24.2,26.7,48.9,30.5,77c0.5,3.4,2,4.2,5.1,4.1C227,339.9,238.4,339.9,249.9,339.9z"/>
		<path class="st2" d="M249.5,441.4c-13.8,0-25.5-5.2-31.2-13.9c-1-1.5-1.1-3.4-0.2-5c1-1.8,2.9-2.9,5-2.9h53.1c2.1,0,4.1,1.1,5,2.8
			c0.9,1.6,0.8,3.4-0.2,4.9c-5.6,8.7-17.4,13.9-31.4,14C249.6,441.4,249.5,441.4,249.5,441.4z M226.7,426.7c5,4.9,13.2,7.7,22.9,7.7
			c9.8,0,18.1-2.8,23-7.7H226.7z"/>
		<path class="st2" d="M269.5,329.6L269.5,329.6c-1.9-0.4-3.1-2.3-2.6-4.2l29.7-126.2c0.4-1.9,2.3-3.1,4.2-2.6l0,0
			c1.9,0.4,3.1,2.3,2.6,4.2l-29.7,126.2C273.3,328.8,271.4,330,269.5,329.6z"/>
		<path class="st2" d="M226,326.9l-29.7-126.2c-0.4-1.9,0.7-3.8,2.6-4.2l0,0c1.9-0.4,3.8,0.7,4.2,2.6l29.7,126.2
			c0.4,1.9-0.7,3.8-2.6,4.2l0,0C228.3,330,226.4,328.8,226,326.9z"/>
		<path class="st2" d="M301.4,203.7c-5.8,0-11.6-3.2-16.2-7.5c-2.9,4.3-6.7,7.5-11.2,7.5c-4.5,0-9.5-3.4-13.8-7.7
			c-2.8,4.4-6.4,7.7-10.3,7.7c-3.9,0-8.9-3.5-13.3-8c-2.7,4.5-6.2,8-9.7,8c-4,0-11-5.2-16.8-10.9c-2.4,3.9-5,7.3-6.7,9.6l-5.3-4.2
			c2.9-3.7,5.4-7.4,7.2-10.7c-1.4-1.7-2.6-3.4-3.5-4.9c-2.1-3.7-2.5-6.8-1.2-9.2c0.8-1.5,2.7-3.2,6.9-3.2c0,0,0,0,0,0
			c4.8,0,6.8,2.5,7.5,4c1.5,3.2,0.5,7.7-1.6,12.3c0.5,0.5,1,1,1.5,1.5c5.8,5.6,10.5,8.5,11.9,8.8c1.3-0.5,3.3-3.2,5-6.5
			c-1.3-1.7-2.5-3.4-3.4-5c-2.9-5-3.5-8.9-1.9-11.7c0.9-1.5,2.7-3.3,6.7-3.3c0,0,0,0,0,0c5.2,0,8.4,3.6,8.4,9.5c0,2.7-0.7,6.1-2,9.4
			c4.3,4.8,8.7,7.7,10.2,7.7c1.3,0,3.7-2.7,5.6-6.3c-1.2-1.6-2.3-3.2-3.1-4.7c-3.1-5.3-3.8-9.5-2.1-12.5c0.7-1.2,2.4-3.2,6.4-3.2
			c0,0,0,0,0,0c5.3,0,8.7,3.8,8.7,9.9c0,2.8-0.7,6.1-1.9,9.3c4.2,4.6,8.5,7.3,10.7,7.3c1.9,0,4.5-2.4,6.5-6
			c-3.2-4.4-5.2-9.2-5.2-12.9c0-2.8,1.1-4.5,2-5.5c1-1,2.8-2.2,5.9-2.2c2.5,0,4.7,1.1,6,3.2c1,1.6,1.5,3.6,1.5,6
			c0,2.9-0.8,6.6-2.2,10.2c3.8,4,8.6,7.1,12.9,7.1V203.7z M283.2,177.2c-0.8,0-1,0.2-1,0.2c-0.2,0.3-0.3,2.2,1.4,5.5
			c0.6-3.2,0.3-5.3-0.1-5.7C283.4,177.2,283.4,177.2,283.2,177.2z M256,177.2c0,0.8,0.5,2.8,2.2,5.6c0.1-0.8,0.2-1.7,0.2-2.5
			c0-3.1-1.1-3.1-1.9-3.1C256.3,177.2,256.2,177.2,256,177.2z M232.4,177.2c0,0.8,0.5,2.6,2.2,5.3c0.3-1.4,0.3-2.7,0.2-3.8
			c-0.2-1.6-0.7-1.6-1.5-1.6C232.8,177.2,232.5,177.2,232.4,177.2z M206.6,177.2c0.2,0.7,0.8,1.9,1.8,3.5c0.6-1.6,0.7-2.8,0.4-3.4
			c0,0-0.4-0.2-1.4-0.2C207.1,177.2,206.8,177.2,206.6,177.2z"/>
		<path class="st2" d="M284.2,384.9h-68.4c-6.5,0-11.8-5.3-11.8-11.8c0-6.5,5.3-11.8,11.8-11.8h68.4c6.5,0,11.8,5.3,11.8,11.8
			C296,379.6,290.7,384.9,284.2,384.9z M215.9,370.1c-1.6,0-3,1.4-3,3c0,1.6,1.4,3,3,3h68.4c1.6,0,3-1.4,3-3c0-1.6-1.4-3-3-3H215.9z
			"/>
		<path class="st2" d="M281.2,413.8h-62.3c-6.5,0-11.8-5.3-11.8-11.8c0-6.5,5.3-11.8,11.8-11.8h62.3c6.5,0,11.8,5.3,11.8,11.8
			C293,408.6,287.7,413.8,281.2,413.8z M218.9,399.1c-1.6,0-3,1.4-3,3c0,1.6,1.4,3,3,3h62.3c1.6,0,3-1.4,3-3c0-1.6-1.4-3-3-3H218.9z
			"/>
	</g>
</g>
</svg>
