<?xml version="1.0" encoding="utf-8"?>
<!-- Generator: Adobe Illustrator 19.1.0, SVG Export Plug-In . SVG Version: 6.00 Build 0)  -->
<svg version="1.1" id="Layer_1" xmlns="http://www.w3.org/2000/svg" xmlns:xlink="http://www.w3.org/1999/xlink" x="0px" y="0px"
	 viewBox="0 0 200 200" style="enable-background:new 0 0 200 200;" xml:space="preserve">
<style type="text/css">
	.st0{fill:#D5D755;}
</style>
<g>
	<path class="st0" d="M145.7,0H69C51.7,0,37.6,13,37.6,29V48c0,1.1,0.9,2,2,2h11.9c1.1,0,2-0.9,2-2V29c0-7.8,6.9-14.2,15.4-14.2
		h76.7c8.5,0,15.4,6.4,15.4,14.2V171c0,7.8-6.9,14.2-15.4,14.2H69c-8.5,0-15.4-6.4-15.4-14.2V152c0-1.1-0.9-2-2-2H39.7
		c-1.1,0-2,0.9-2,2V171c0,16,14.1,29,31.4,29h76.7c17.3,0,31.4-13,31.4-29V29C177.1,13,163,0,145.7,0z"/>
	<path class="st0" d="M23.7,117.6h46.2c1.1,0,2,0.9,2,2v24.7c0,1.7,2,2.7,3.3,1.6l55.2-44.3c1-0.8,1-2.4,0-3.2L75.3,54.1
		c-1.3-1.1-3.3-0.1-3.3,1.6v24.7c0,1.1-0.9,2-2,2H23.7c-1.1,0-2,0.9-2,2v31.1C21.7,116.7,22.6,117.6,23.7,117.6z"/>
</g>
</svg>
