<?xml version="1.0" encoding="utf-8"?>
<!-- Generator: Adobe Illustrator 19.1.0, SVG Export Plug-In . SVG Version: 6.00 Build 0)  -->
<svg version="1.1" id="Layer_1" xmlns="http://www.w3.org/2000/svg" xmlns:xlink="http://www.w3.org/1999/xlink" x="0px" y="0px"
	 viewBox="0 0 500 243.6" style="enable-background:new 0 0 500 243.6;" xml:space="preserve">
<style type="text/css">
	.st0{fill:#F7F8F9;}
</style>
<path class="st0" d="M250,243.6c-7.5,0-15-2.8-20.7-8.5L1.2,6.9c-1.6-1.6-1.6-4.1,0-5.7l0,0c1.6-1.6,4.1-1.6,5.7,0l228.2,228.2
	c4,4,9.3,6.2,14.9,6.2s10.9-2.2,14.9-6.2L493.1,1.1c1.6-1.6,4.1-1.6,5.7,0v0c1.6,1.6,1.6,4.1,0,5.7L270.7,235
	C265,240.7,257.5,243.6,250,243.6z"/>
</svg>
