<?xml version="1.0" encoding="utf-8"?>
<!-- Generator: Adobe Illustrator 19.1.0, SVG Export Plug-In . SVG Version: 6.00 Build 0)  -->
<svg version="1.1" id="Layer_1" xmlns="http://www.w3.org/2000/svg" xmlns:xlink="http://www.w3.org/1999/xlink" x="0px" y="0px"
	 viewBox="0 0 200 200" style="enable-background:new 0 0 200 200;" xml:space="preserve">
<style type="text/css">
	.st0{fill:#BB80D1;}
</style>
<g id="_x35_JeiRY.tif">
	<g>
		<path class="st0" d="M18.4,174.7c0-28.6,0-57.1,0-85.7c0.1-0.2,0.3-0.5,0.3-0.7c2.4-18.4,5-36.8,7.1-55.2
			c1.1-9.5,5.4-16.4,14-20.6c1.2-0.6,2.4-1.2,3.7-1.8C56.2,5.1,69.9,2.9,83.7,1c3.5-0.5,7.1-0.8,10.6-1.2c3.8,0,7.6,0,11.3,0
			c0.6,0.1,1.1,0.3,1.7,0.3c12.2,0.8,24.2,2.9,36,6c7.6,2,15,4.6,21.4,9.2c5.2,3.7,8.1,8.8,9,15.2c1.9,14.6,3.8,29.2,5.7,43.8
			c0.8,5.9,2,11.8,2,17.7c0.2,26.9,0.1,53.7,0.1,80.6c0,0.7,0,1.4,0,2.3c-2.4,0-4.6,0-6.8,0c-2.3,0-4.5,0-6.9,0
			c0,4.8,0.1,9.3,0,13.8c-0.1,6.8-5,11.5-11.8,11.5c-6.7,0-11.6-4.8-11.7-11.6c-0.1-3.9,0-7.8,0-11.7c0-0.6-0.1-1.2-0.1-1.9
			c-29.6,0-59.1,0-88.7,0c0,0.8,0,1.5,0,2.2c0,3.9,0.1,7.8,0,11.7c-0.2,6.1-4.6,10.7-10.5,11.2c-6.4,0.6-11.5-3.2-12.7-9.3
			c-0.3-1.4-0.2-2.9-0.3-4.3c0-3.8,0-7.7,0-11.8C27.4,174.7,22.9,174.7,18.4,174.7z M99.9,97c20.1,0,40.2,0,60.2,0
			c5.4,0,7.8-2.6,7.1-8c-2-14.8-4-29.6-6.1-44.3c-1.1-7.4-3.5-9.4-11-9.4c-33.3,0-66.6,0-99.9,0c-1,0-2.1,0-3.1,0.1
			c-4.2,0.4-6.5,2.2-7.5,6.2c-0.7,2.7-1,5.5-1.4,8.3c-1.8,12.8-3.6,25.5-5.3,38.3c-0.9,6.6,1.3,8.8,8,8.8C60.5,97,80.2,97,99.9,97z
			 M100,25.2c2.5,0,5.1,0,7.6,0c8.5,0,17.1,0,25.6,0c4.1,0,6.5-3.7,4.8-7.3c-1.2-2.4-3.3-2.7-5.6-2.7c-21.5,0-43,0-64.5,0
			c-0.8,0-1.6,0-2.3,0.1c-1.9,0.2-3.1,1.3-3.7,3.1c-1.3,3.6,1.1,6.7,5.1,6.8C77.9,25.2,89,25.2,100,25.2z M43.9,125.8
			c-6.2,0-11.3,5.1-11.3,11.3c0,6.2,5.1,11.4,11.3,11.4c6.2,0,11.3-5.1,11.3-11.3C55.2,131,50.1,125.8,43.9,125.8z M167.5,137.1
			c0-6.2-5.1-11.3-11.3-11.3c-6.2,0-11.3,5.1-11.3,11.3c0,6.2,5.1,11.3,11.3,11.3C162.3,148.5,167.5,143.3,167.5,137.1z"/>
	</g>
</g>
</svg>
