<?xml version="1.0" encoding="utf-8"?>
<!-- Generator: Adobe Illustrator 19.1.0, SVG Export Plug-In . SVG Version: 6.00 Build 0)  -->
<svg version="1.1" id="Layer_1" xmlns="http://www.w3.org/2000/svg" xmlns:xlink="http://www.w3.org/1999/xlink" x="0px" y="0px"
	 viewBox="0 0 610.6 500" style="enable-background:new 0 0 610.6 500;" xml:space="preserve">
<style type="text/css">
	.st0{fill:#F7F8F9;}
</style>
<g>
	<path class="st0" d="M546.3,77c22.1-1.5,42.6-9,64.2-14.9c-1.1,1.7-2.1,3.5-3.3,5.2c-14.7,19.9-31.7,37.7-51.3,52.9
		c-3.7,2.9-5.3,5.9-5.4,10.5c-0.7,28.2-2.3,56.4-8.6,84.1c-21.9,95.3-71,172.5-152.5,227.9c-44,29.9-92.7,48.3-145.5,54.1
		c-53.8,5.9-107.5,4.9-159.9-11.8c-27.2-8.7-52.9-20.5-77.7-34.6C4.3,449,2.2,447.6,0,445c66.5,4.1,127.1-11.5,182.1-52.8
		c-27-3-51.3-10.3-72.1-26.1c-20.9-15.9-35.9-36-44.3-61.8c18.1,0.5,35.2,1.8,52.2-2.4C57.7,282,25,241.2,21.5,177.1
		c17,7.9,34.5,12.8,54.3,14.4C20.4,144.8,9.5,89.2,37.8,23.3c11,10.7,20.8,20.3,30.6,29.9c62.7,61.7,138.5,94.3,225.8,101.4
		c1.3,0.1,2.7,0,3.1,0c0-10.8,0.2-21.1,0-31.4c-1-55.4,42-109.6,101.4-120.7c40.2-7.5,77.3,1.6,108.2,29.8
		c6.4,5.8,12.7,7.8,20.7,4.8c17.9-6.8,35.9-13.6,53.7-20.5c4.4-1.7,8.6-3.7,14.4-6.3C585.4,38.5,568.2,59.2,546.3,77z"/>
</g>
</svg>
